<svg xmlns="http://www.w3.org/2000/svg" viewBox="0 0 1200 440" role="img" aria-labelledby="title desc">
<title id="title">Clean Bubbles</title>
<desc id="desc">Clean Bubbles Laundry and Cleaning Services logo in blue, aqua and pink</desc>
<defs>
  <linearGradient id="blue" x1="0" y1="0" x2="1" y2="1">
    <stop offset="0" stop-color="#083b8c"/><stop offset=".55" stop-color="#087dd3"/><stop offset="1" stop-color="#15c7f3"/>
  </linearGradient>
  <linearGradient id="pink" x1="0" y1="0" x2="1" y2="1">
    <stop offset="0" stop-color="#ff2b91"/><stop offset="1" stop-color="#cf005b"/>
  </linearGradient>
  <radialGradient id="bubble" cx=".35" cy=".25" r=".8">
    <stop offset="0" stop-color="#ffffff" stop-opacity=".98"/>
    <stop offset=".18" stop-color="#9feaff" stop-opacity=".92"/>
    <stop offset=".58" stop-color="#54c9f4" stop-opacity=".72"/>
    <stop offset="1" stop-color="#158ad8" stop-opacity=".35"/>
  </radialGradient>
</defs>

<g transform="translate(18 18)">
  <circle cx="185" cy="185" r="145" fill="none" stroke="url(#blue)" stroke-width="34"/>
  <path d="M52 252 C120 300 227 300 316 230 C265 330 118 351 37 279 Z" fill="url(#blue)"/>
  <path d="M45 115 C112 48 205 35 275 55" fill="none" stroke="url(#pink)" stroke-width="14" stroke-linecap="round"/>
  <path d="M92 250 C150 205 218 207 288 242 C232 284 151 292 92 250 Z" fill="#ffffff"/>
  <path d="M127 130 L166 99 L222 119 L245 198 L220 238 L118 229 L112 167 Z" fill="#ffffff" stroke="#d9eef8" stroke-width="5"/>
  <path d="M166 99 L187 139 L219 118" fill="none" stroke="#c6e4f2" stroke-width="5"/>
  <path d="M187 139 L187 222" stroke="#d8edf7" stroke-width="4"/>
  <circle cx="178" cy="38" r="27" fill="url(#bubble)" stroke="#20aeea" stroke-width="3"/>
  <circle cx="245" cy="77" r="38" fill="url(#bubble)" stroke="#20aeea" stroke-width="3"/>
  <circle cx="281" cy="143" r="18" fill="url(#bubble)" stroke="#20aeea" stroke-width="3"/>
  <circle cx="282" cy="196" r="28" fill="url(#bubble)" stroke="#20aeea" stroke-width="3"/>
  <circle cx="106" cy="82" r="16" fill="url(#bubble)" stroke="#20aeea" stroke-width="3"/>
</g>

<g transform="translate(355 42)">
  <text x="0" y="135" font-family="Arial Black, Arial, sans-serif" font-size="128" font-weight="900" fill="#082b71" letter-spacing="-8">Clean</text>
  <text x="8" y="265" font-family="Arial Black, Arial, sans-serif" font-size="126" font-weight="900" fill="url(#pink)" letter-spacing="-8">Bubbles</text>
  <path d="M765 98 C791 52 817 66 826 31 C839 71 823 100 784 121 Z" fill="url(#blue)"/>
  <path d="M810 118 C845 66 879 79 897 44 C905 88 883 122 833 139 Z" fill="url(#pink)"/>
  <text x="70" y="337" font-family="Arial, sans-serif" font-size="38" font-weight="700" fill="#082b71" letter-spacing="9">LAUNDRY &amp; CLEANING SERVICES</text>
  <line x1="70" y1="365" x2="178" y2="365" stroke="#ef0a75" stroke-width="5"/>
  <text x="210" y="376" font-family="Arial, sans-serif" font-size="25" fill="#123b79" letter-spacing="8">CLEAN SPACES. HEALTHY LIVING.</text>
  <line x1="800" y1="365" x2="910" y2="365" stroke="#ef0a75" stroke-width="5"/>
</g>
</svg>